<svg viewBox="0 0 120 120" xmlns="http://www.w3.org/2000/svg" role="img" aria-label="Logo ClarIA">
  <defs>
    <linearGradient id="claria-bg-grad" x1="0" y1="0" x2="120" y2="120" gradientUnits="userSpaceOnUse">
      <stop offset="0" stop-color="#4C6FFF"/>
      <stop offset="1" stop-color="#7B5CFA"/>
    </linearGradient>
  </defs>
  <rect x="0" y="0" width="120" height="120" rx="28" fill="url(#claria-bg-grad)"/>
  <path d="M38 26 H70 L84 40 V94 A4 4 0 0 1 80 98 H38 A4 4 0 0 1 34 94 V30 A4 4 0 0 1 38 26 Z" fill="#FFFFFF"/>
  <path d="M70 26 V36 A4 4 0 0 0 74 40 H84 Z" fill="#C9D1FF"/>
  <rect x="44" y="54" width="30" height="5" rx="2.5" fill="#4C6FFF" opacity="0.85"/>
  <rect x="44" y="65" width="30" height="5" rx="2.5" fill="#4C6FFF" opacity="0.55"/>
  <rect x="44" y="76" width="20" height="5" rx="2.5" fill="#4C6FFF" opacity="0.35"/>
  <path d="M90 78 L93 86 L101 89 L93 92 L90 100 L87 92 L79 89 L87 86 Z" fill="#FFD166"/>
</svg>
